<?xml version="1.0" standalone="no"?>
<!DOCTYPE svg PUBLIC "-//W3C//DTD SVG 20010904//EN"
 "http://www.w3.org/TR/2001/REC-SVG-20010904/DTD/svg10.dtd">
<svg version="1.0" xmlns="http://www.w3.org/2000/svg"
 width="300.000000pt" height="300.000000pt" viewBox="0 0 300.000000 300.000000"
 preserveAspectRatio="xMidYMid meet">
<metadata>
Created by potrace 1.10, written by Peter Selinger 2001-2011
</metadata>
<g transform="translate(0.000000,300.000000) scale(0.100000,-0.100000)"
fill="#000000" stroke="none">
<path d="M1369 2556 c-2 -2 -20 -6 -39 -9 -68 -8 -225 -59 -295 -95 -289 -147
-491 -396 -577 -710 -18 -64 -21 -107 -22 -247 -1 -191 13 -265 81 -422 122
-285 402 -520 710 -598 126 -31 331 -41 429 -20 207 45 350 105 481 204 222
167 358 393 408 676 44 244 -26 543 -178 765 -46 66 -172 195 -246 251 -79 59
-243 142 -326 164 -33 9 -76 21 -95 27 -34 9 -323 22 -331 14z m303 -47 c401
-81 705 -367 815 -765 24 -87 27 -117 27 -249 0 -133 -3 -162 -27 -249 -36
-129 -68 -202 -135 -304 -143 -219 -357 -366 -630 -434 -132 -33 -350 -31
-487 6 -301 80 -545 282 -675 559 -75 159 -101 304 -88 492 9 134 35 238 87
350 53 113 99 181 188 275 154 164 336 268 553 316 70 15 302 17 372 3z"/>
<path d="M1317 2294 c-87 -21 -157 -58 -222 -117 l-59 -54 39 -26 c50 -33 111
-43 160 -27 50 16 114 75 136 125 18 40 26 116 12 114 -5 0 -34 -7 -66 -15z
m-23 -45 c-2 -4 -16 -10 -31 -14 -33 -8 -113 -57 -138 -85 -21 -23 -35 -26
-35 -7 0 22 42 56 121 97 50 26 76 35 81 27 4 -6 5 -14 2 -18z m42 -24 c-8
-31 -52 -82 -87 -100 -32 -17 -105 -20 -114 -5 -3 6 4 10 17 11 18 0 19 2 7 7
-12 5 3 18 57 48 41 23 74 38 74 34 0 -17 -45 -63 -74 -76 -17 -7 -24 -13 -16
-14 31 0 79 40 106 90 28 51 42 53 30 5z"/>
<path d="M1506 2264 c-15 -113 -102 -231 -203 -276 -93 -41 -215 -34 -285 18
-17 13 -35 24 -39 24 -8 0 -63 -110 -74 -148 -5 -19 0 -25 37 -41 98 -42 189
-50 283 -26 217 55 373 225 401 436 6 47 5 49 -17 49 -13 0 -40 3 -60 6 l-36
6 -7 -48z m71 -39 c-19 -169 -219 -357 -398 -372 -35 -3 -62 -3 -59 -1 3 3 48
22 100 43 198 78 279 166 336 363 2 6 9 12 15 12 8 0 10 -15 6 -45z m-80 -68
c-46 -101 -140 -186 -264 -237 -43 -18 -91 -41 -106 -52 -23 -16 -38 -19 -74
-14 -63 8 -163 54 -120 54 5 0 24 13 44 28 35 26 38 27 82 14 74 -21 107 -23
163 -10 73 17 123 44 179 97 46 42 108 146 110 182 0 10 2 12 6 4 2 -7 -6 -37
-20 -66z m-507 -181 c0 -17 -27 -29 -35 -16 -4 6 -3 15 0 20 9 15 35 12 35 -4z"/>
<path d="M1740 2247 c0 -16 9 -28 25 -35 62 -28 145 -128 145 -174 0 -6 -107
-119 -237 -250 l-237 -238 -172 0 -171 0 -79 -74 c-43 -41 -77 -77 -74 -79 3
-3 39 25 80 63 45 42 84 69 98 70 12 0 22 -4 22 -8 0 -13 -200 -206 -206 -199
-3 3 -7 20 -9 39 -4 48 -15 137 -21 182 -3 22 -2 70 2 108 6 62 8 67 25 57 21
-11 26 -39 7 -39 -6 0 -9 -3 -5 -6 3 -4 14 -3 24 1 10 5 55 8 100 9 l83 1
-108 -109 c-59 -60 -100 -105 -91 -100 14 8 115 94 155 132 17 16 18 8 3 -20
l-11 -21 28 21 c49 34 77 70 70 87 -5 13 -1 15 14 10 27 -8 118 19 202 60 97
48 182 117 240 196 43 56 55 66 69 58 10 -5 27 -9 38 -9 27 0 111 81 111 107
0 33 -34 57 -75 50 l-35 -6 0 40 c0 51 -16 50 -25 -2 -4 -22 -25 -78 -48 -122
-84 -170 -259 -303 -452 -342 -110 -22 -262 -3 -330 41 -21 14 -23 13 -29 -8
-11 -44 -6 -254 10 -343 30 -172 78 -286 176 -413 81 -104 232 -201 372 -237
52 -13 67 -13 121 0 230 53 422 231 505 468 l18 50 63 -1 c83 -2 128 15 156
57 41 60 23 145 -37 176 -16 8 -54 15 -85 15 l-57 0 7 50 c4 28 4 78 0 111 -7
59 -8 60 -22 37 -9 -13 -45 -53 -82 -90 l-65 -68 -226 0 -226 0 228 228 c222
222 228 229 228 268 0 71 -66 151 -167 203 l-43 21 0 -23z m104 -143 c7 -19
-80 -106 -102 -102 -34 6 -24 43 22 86 45 41 69 46 80 16z m205 -505 c-20 -28
-48 -49 -67 -49 -5 0 9 19 32 43 46 47 68 51 35 6z m20 -81 c-3 -53 -8 -70
-21 -62 -5 3 -7 13 -3 22 10 26 -28 -10 -357 -343 -250 -254 -304 -313 -295
-324 10 -12 9 -13 -6 -8 -10 4 -24 7 -30 7 -45 1 -29 24 117 171 162 162 175
183 162 254 -9 45 -39 81 -80 95 l-33 11 82 79 82 80 152 -1 c128 0 157 2 179
17 15 9 31 23 35 31 14 22 18 15 16 -29z m-719 -3 c-7 -9 -27 -22 -44 -30 -17
-9 -96 -80 -176 -160 l-145 -145 -17 38 c-9 20 -17 44 -17 53 -1 9 47 63 105
120 86 85 111 104 137 106 18 1 50 2 72 3 22 1 32 4 22 7 -30 8 -8 23 35 23
35 0 39 -2 28 -15z m167 -122 c-67 -65 -186 -183 -264 -263 l-143 -145 -29 34
c-15 19 -38 53 -50 75 l-23 41 182 180 181 180 127 5 c70 3 130 7 134 8 3 1
-49 -51 -115 -115z m725 50 c11 -10 18 -30 18 -54 0 -56 -34 -79 -117 -79 -57
0 -64 2 -59 18 5 15 26 119 26 128 0 2 26 4 57 4 38 0 62 -5 75 -17z m-186
-56 c-3 -12 -138 -154 -300 -316 -261 -261 -297 -293 -319 -287 -22 5 2 33
297 328 176 178 323 317 324 310 2 -8 1 -23 -2 -35z m-486 -123 c17 -16 24
-34 24 -59 0 -33 -13 -49 -161 -196 -151 -152 -161 -160 -182 -148 -20 13 -15
20 126 161 126 127 146 151 137 166 -24 38 -44 25 -187 -117 -78 -77 -138
-143 -134 -147 4 -5 68 52 142 126 74 74 137 132 139 129 3 -3 -57 -67 -133
-143 l-139 -139 -32 30 -31 29 166 165 c91 90 174 167 183 171 24 9 53 0 82
-28z m480 31 c0 -3 -7 -16 -15 -28 -8 -12 -28 -55 -44 -96 -57 -137 -141 -235
-268 -310 -72 -43 -181 -86 -191 -76 -6 6 498 515 510 515 5 0 8 -2 8 -5z"/>
<path d="M1830 1435 c-7 -8 -22 -15 -34 -15 -58 -1 -64 -53 -6 -58 27 -2 42 4
67 27 21 19 31 35 27 45 -8 20 -38 21 -54 1z m14 -29 c-7 -18 -32 -28 -47 -19
-9 5 26 27 50 33 1 0 0 -6 -3 -14z"/>
<path d="M1694 1295 c-8 -20 4 -35 27 -35 14 0 19 7 19 25 0 18 -5 25 -20 25
-11 0 -23 -7 -26 -15z"/>
<path d="M1090 1354 c-63 -64 -107 -112 -98 -107 40 20 235 223 215 223 -1 0
-54 -52 -117 -116z"/>
<path d="M1460 1415 l-55 -56 -5 28 c-6 34 -42 43 -71 17 -28 -25 -25 -62 7
-76 25 -12 24 -12 -102 -139 -71 -71 -126 -130 -123 -133 4 -4 359 341 403
392 39 45 -2 20 -54 -33z m-80 -30 c17 -20 5 -45 -20 -45 -23 0 -35 22 -26 45
7 19 30 19 46 0z"/>
<path d="M1187 1269 c5 -16 -12 -38 -73 -100 -65 -66 -75 -79 -56 -79 31 0
162 134 162 165 0 13 -7 26 -16 29 -22 9 -23 8 -17 -15z"/>
<path d="M914 2179 c-8 -14 21 -43 35 -35 6 4 11 16 11 27 0 21 -34 27 -46 8z"/>
<path d="M2014 2179 c-3 -6 0 -18 9 -26 18 -18 37 -9 37 18 0 21 -34 27 -46 8z"/>
<path d="M1630 1813 c-140 -141 -228 -233 -195 -203 33 30 65 59 71 65 7 5 96
93 198 194 158 156 199 201 183 201 -1 0 -117 -116 -257 -257z"/>
<path d="M807 2023 c-12 -12 -7 -41 7 -46 22 -9 41 19 26 38 -14 16 -23 19
-33 8z"/>
<path d="M2076 1993 c-13 -21 -94 -107 -180 -192 -86 -85 -156 -156 -156 -158
0 -18 25 -43 43 -43 27 0 387 356 387 382 0 22 -27 48 -51 48 -11 0 -29 -16
-43 -37z m64 9 c0 -4 -83 -90 -185 -192 -102 -102 -185 -179 -185 -172 0 15
348 372 362 372 4 0 8 -3 8 -8z"/>
<path d="M694 1825 c-4 -9 -2 -21 4 -27 15 -15 44 -1 40 19 -4 23 -36 29 -44
8z"/>
<path d="M2164 1825 c-4 -9 -2 -21 4 -27 15 -15 44 -1 40 19 -4 23 -36 29 -44
8z"/>
<path d="M2270 1825 c-10 -11 -10 -19 -2 -27 15 -15 44 -2 40 19 -4 23 -22 27
-38 8z"/>
<path d="M694 1693 c0 -10 -7 -19 -19 -21 -15 -3 -17 -1 -10 10 6 8 2 5 -7 -5
-37 -40 -9 -97 47 -97 56 0 83 57 48 98 -25 29 -61 38 -59 15z"/>
<path d="M2222 1694 c-31 -21 -28 -38 16 -85 l39 -40 36 40 c43 47 44 54 17
81 -22 22 -36 25 -45 10 -4 -7 -13 -7 -24 -1 -13 7 -24 6 -39 -5z"/>
<path d="M1371 1676 c-26 -28 -22 -56 7 -56 25 0 55 34 50 57 -5 27 -31 27
-57 -1z"/>
<path d="M631 1473 c-28 -22 -44 -89 -29 -117 31 -60 83 -79 138 -51 62 32 72
131 17 170 -29 21 -99 19 -126 -2z m62 -10 c4 -3 0 -17 -8 -30 -9 -13 -12 -23
-8 -23 5 0 1 -5 -7 -10 -20 -13 -60 -13 -60 1 0 6 10 8 23 5 12 -3 16 -3 10 0
-16 7 -17 36 -1 52 13 13 41 16 51 5z m41 -5 c-13 -23 -37 -48 -46 -48 -5 0 0
14 12 30 20 29 49 43 34 18z m16 -77 c0 -25 -20 -41 -51 -41 -42 0 -42 14 -1
42 40 27 52 27 52 -1z"/>
<path d="M763 1190 c-76 -81 -84 -107 -49 -160 14 -22 26 -45 26 -51 0 -17 13
-8 53 38 l38 41 -3 99 -3 98 -62 -65z m50 -44 c-3 -13 -18 -39 -34 -58 l-28
-33 -1 29 c0 19 10 40 27 58 33 34 42 35 36 4z m-73 -77 c0 -27 -2 -30 -15
-19 -11 9 -12 17 -4 31 14 27 19 24 19 -12z"/>
<path d="M2202 1173 c2 -9 -3 -18 -9 -20 -7 -3 -13 2 -13 11 0 33 -52 10 -75
-34 -8 -16 -15 -40 -15 -55 0 -25 0 -25 93 -25 83 -1 90 -2 73 -15 -23 -17
-92 -20 -131 -5 -24 9 -25 8 -14 -11 18 -34 74 -52 116 -38 90 29 93 166 3
197 -26 10 -30 9 -28 -5z m24 -68 c18 -13 16 -14 -26 -14 -42 0 -44 1 -26 14
11 8 23 15 26 15 3 0 15 -7 26 -15z"/>
<path d="M850 951 c0 -27 19 -36 37 -18 18 18 9 37 -18 37 -12 0 -19 -7 -19
-19z"/>
<path d="M2037 956 c-7 -17 18 -40 33 -31 5 3 10 15 10 26 0 23 -35 27 -43 5z"/>
<path d="M936 878 c-50 -71 44 -158 104 -98 26 26 26 81 2 103 -28 25 -87 22
-106 -5z m60 -54 c-15 -14 -31 -22 -35 -19 -3 4 7 17 24 30 38 31 49 21 11
-11z"/>
<path d="M1956 868 c-20 -28 -20 -43 0 -62 21 -21 57 -20 77 2 22 24 21 45 -1
65 -26 23 -58 21 -76 -5z"/>
<path d="M1834 775 c-4 -9 -2 -21 4 -27 15 -15 44 -1 40 19 -4 23 -36 29 -44
8z"/>
</g>
</svg>
