<?xml version="1.0" standalone="no"?>
<!DOCTYPE svg PUBLIC "-//W3C//DTD SVG 20010904//EN"
 "http://www.w3.org/TR/2001/REC-SVG-20010904/DTD/svg10.dtd">
<svg version="1.0" xmlns="http://www.w3.org/2000/svg"
 width="300.000000pt" height="300.000000pt" viewBox="0 0 300.000000 300.000000"
 preserveAspectRatio="xMidYMid meet">
<metadata>
Created by potrace 1.10, written by Peter Selinger 2001-2011
</metadata>
<g transform="translate(0.000000,300.000000) scale(0.100000,-0.100000)"
fill="#000000" stroke="none">
<path d="M1851 2808 c-91 -90 -167 -164 -170 -165 -2 -1 79 -85 181 -187 l185
-185 183 184 c101 102 182 186 179 187 -2 2 -79 76 -170 166 -136 133 -170
162 -194 162 -24 0 -58 -29 -194 -162z m356 -20 c73 -73 133 -139 133 -147 0
-17 -278 -301 -295 -301 -6 0 -78 67 -160 150 l-149 150 140 140 c115 115 145
140 169 140 23 0 53 -24 162 -132z"/>
<path d="M1472 2427 l-172 -172 182 -183 182 -183 173 173 173 173 -183 183
-182 182 -173 -173z m468 -192 c0 -16 -263 -275 -280 -275 -8 0 -80 65 -159
144 -123 123 -142 146 -133 162 6 11 69 77 142 148 l131 130 149 -149 c83 -83
150 -154 150 -160z"/>
<path d="M2264 2417 l-181 -182 171 -172 c95 -95 175 -173 179 -173 4 0 14 17
22 38 9 20 27 48 40 62 17 18 22 29 15 40 -15 24 -12 109 6 146 9 18 35 50 58
71 28 26 42 47 44 68 1 16 7 44 12 60 10 29 7 34 -86 128 -53 53 -97 97 -98
96 0 0 -83 -82 -182 -182z m266 48 c49 -52 61 -70 56 -88 -3 -12 -6 -30 -6
-39 0 -9 -19 -38 -42 -65 -59 -68 -78 -115 -78 -196 0 -54 -4 -75 -20 -94
l-20 -26 -135 134 c-74 73 -135 138 -135 143 0 17 283 296 301 296 9 0 44 -29
79 -65z"/>
<path d="M773 1728 c-310 -311 -484 -492 -488 -509 -4 -16 -1 -38 9 -56 22
-43 1053 -1072 1080 -1079 13 -3 37 1 52 10 16 8 244 230 507 493 l477 478
-183 183 -183 183 -56 -59 -57 -59 -20 21 -21 20 61 56 60 55 -175 175 -176
175 -56 -59 -55 -59 -20 20 -20 20 58 56 58 56 -180 181 c-99 99 -182 180
-185 180 -3 0 -222 -217 -487 -482z m641 273 l149 -149 -41 -48 c-48 -54 -52
-75 -17 -109 34 -35 59 -31 111 17 l45 42 140 -140 c76 -76 139 -144 139 -150
0 -6 -12 -21 -26 -35 -60 -56 -63 -100 -9 -135 21 -14 27 -14 52 -1 15 8 39
27 52 41 14 14 29 26 35 26 17 0 296 -283 296 -300 0 -9 -206 -221 -458 -473
-396 -395 -462 -457 -488 -457 -25 0 -98 70 -546 518 -480 479 -518 520 -518
551 0 32 35 69 457 493 251 252 462 458 468 458 5 0 77 -67 159 -149z"/>
<path d="M947 1793 c-210 -209 -231 -235 -222 -270 7 -28 923 -953 977 -987
22 -14 31 -15 50 -6 33 17 376 359 394 393 14 26 13 31 -5 60 -11 18 -233 245
-493 505 -406 405 -478 472 -503 472 -24 0 -57 -28 -198 -167z m691 -356 l489
-488 -198 -198 -197 -198 -491 491 -491 491 192 196 c106 108 196 195 200 195
4 -1 228 -221 496 -489z"/>
<path d="M535 1368 c-55 -29 -155 -145 -155 -180 0 -16 956 -975 990 -993 32
-17 48 -9 118 59 53 50 82 93 82 118 0 16 -956 975 -990 993 -19 10 -31 10
-45 3z m518 -516 l489 -489 -75 -75 -74 -76 -493 493 -492 493 73 70 c41 39
76 72 79 72 3 0 225 -220 493 -488z"/>
<path d="M1873 2026 l-172 -173 174 -175 175 -174 172 173 173 173 -175 174
-175 175 -172 -173z m322 -36 l139 -139 -139 -141 c-76 -77 -144 -140 -150
-140 -16 0 -275 263 -275 280 0 16 259 280 275 280 6 0 73 -63 150 -140z"/>
<path d="M2255 1640 l-171 -171 183 -182 183 -183 109 110 110 110 -34 37
c-30 33 -55 91 -55 127 0 6 -19 29 -42 50 -49 44 -68 85 -68 148 0 29 -7 56
-19 72 -10 15 -20 33 -22 40 -2 6 -81 -65 -174 -158z m169 74 c3 -9 6 -30 6
-47 1 -44 31 -107 75 -155 20 -23 41 -56 46 -75 5 -19 20 -51 34 -71 14 -20
25 -39 25 -43 0 -13 -145 -153 -159 -153 -17 0 -301 278 -301 295 0 11 251
265 261 265 4 0 10 -7 13 -16z"/>
</g>
</svg>
